<svg width="40" height="40" viewBox="0 0 40 40" fill="none" xmlns="http://www.w3.org/2000/svg">
<path d="M15.2365 35.9759C12.444 35.1445 9.95819 33.6009 7.98989 31.5557C8.72414 30.6855 9.16667 29.561 9.16667 28.3333C9.16667 25.5719 6.92809 23.3333 4.16667 23.3333C3.99963 23.3333 3.8345 23.3415 3.67166 23.3575C3.44983 22.2729 3.33334 21.15 3.33334 19.9999C3.33334 18.2578 3.60065 16.578 4.09649 14.9995C4.11985 14.9998 4.14324 14.9999 4.16667 14.9999C6.92809 14.9999 9.16667 12.7614 9.16667 9.99994C9.16667 9.20721 8.98218 8.45756 8.6538 7.79159C10.5813 5.99942 12.9338 4.65819 15.5434 3.93579C16.3703 5.55666 18.0555 6.66661 20 6.66661C21.9445 6.66661 23.6297 5.55666 24.4566 3.93579C27.0662 4.65819 29.4187 5.99942 31.3462 7.79159C31.0178 8.45756 30.8333 9.20721 30.8333 9.99994C30.8333 12.7614 33.0719 14.9999 35.8333 14.9999C35.8568 14.9999 35.8802 14.9998 35.9035 14.9995C36.3994 16.578 36.6667 18.2578 36.6667 19.9999C36.6667 21.15 36.5502 22.2729 36.3283 23.3575C36.1655 23.3415 36.0004 23.3333 35.8333 23.3333C33.0719 23.3333 30.8333 25.5719 30.8333 28.3333C30.8333 29.561 31.2759 30.6855 32.0101 31.5557C30.0418 33.6009 27.5561 35.1445 24.7635 35.9759C24.119 33.9598 22.23 32.4999 20 32.4999C17.77 32.4999 15.881 33.9598 15.2365 35.9759Z" stroke="#EF4444" stroke-width="3"/>
<path d="M20 25.8333C23.2217 25.8333 25.8333 23.2216 25.8333 20C25.8333 16.7783 23.2217 14.1666 20 14.1666C16.7783 14.1666 14.1667 16.7783 14.1667 20C14.1667 23.2216 16.7783 25.8333 20 25.8333Z" stroke="#EF4444" stroke-width="3"/>
</svg>
