<svg width="40" height="40" viewBox="0 0 40 40" fill="none" xmlns="http://www.w3.org/2000/svg">
<path d="M20 5V35C14.1666 35 9.83208 27.3659 9.83208 27.3659H5.33332C4.22875 27.3659 3.33331 26.4705 3.33331 25.3659V14.509C3.33331 13.4044 4.22874 12.509 5.33331 12.509H9.83208C9.83208 12.509 14.1666 5 20 5Z" stroke="#EF4444" stroke-width="3"/>
<path d="M26.6666 12.5L26.6666 12.5C27.186 12.9638 27.6567 13.4831 28.07 14.049C29.2822 15.7087 30 17.7685 30 20C30 22.2121 29.2946 24.2556 28.1014 25.9078C27.6806 26.4904 27.1992 27.0244 26.6666 27.5" stroke="#EF4444" stroke-width="3"/>
</svg>
