<svg width="136" height="20" viewBox="0 0 136 20" fill="none" xmlns="http://www.w3.org/2000/svg">
<path d="M19.6245 20H26.8163L17.3825 0H9.40461L0 20H7.19176L8.47289 16.9143H18.3142L19.6245 20ZM10.3946 12.2857L13.3936 5.05714L16.4217 12.2857H10.3946Z" fill="#EF4444"/>
<path d="M28.2691 0V20H35.1988V0H28.2691Z" fill="#EF4444"/>
<path d="M54.5581 20H61.9828L57.1495 12.6286C59.7408 11.6 61.3131 9.65714 61.3131 6.62857C61.3131 2.54286 58.2268 0 52.6073 0H38.1073V20H45.0079V13.5143H50.4236L54.5581 20ZM45.0079 4.62857H51.6173C53.4517 4.62857 54.296 5.31429 54.296 6.62857C54.296 7.91429 53.6555 8.94286 51.6173 8.94286H45.0079V4.62857Z" fill="#EF4444"/>
<path d="M78.1972 0H63.7264V20H70.627V13.7714H77.382C83.0015 13.7714 86.641 11.8 86.641 6.77143C86.641 2.68572 83.8167 0 78.1972 0ZM76.5667 9.2H70.627V4.62857H76.5667C78.6049 4.62857 79.6239 5.2 79.6239 6.77143C79.6239 8.31429 78.7213 9.2 76.5667 9.2Z" fill="#EF4444"/>
<path d="M109.357 15.4H95.8764V12.0571H108.251V7.42857H95.8764V4.62857H109.066V0H88.9758V20H109.357V15.4Z" fill="#EF4444"/>
<path d="M127.935 20H136L126.712 7.71429L135.592 0H127.061L118.88 7.31429V0H111.979V20H118.88V14.4857L122.024 11.7429L127.935 20Z" fill="#EF4444"/>
</svg>
