<svg width="136" height="32" viewBox="0 0 136 32" fill="none" xmlns="http://www.w3.org/2000/svg">
<path d="M1 26.0897H5.05137V27.0852H2.37096V28.4036H3.22342C3.75071 28.4036 4.17255 28.4365 4.48892 28.5022C4.8053 28.562 5.04551 28.6816 5.20956 28.861C5.37946 29.0344 5.46442 29.2855 5.46442 29.6143V30.5291C5.46442 31.4499 4.69691 31.9103 3.1619 31.9103H1V26.0897ZM3.10038 30.9148C3.44606 30.9148 3.69798 30.867 3.85617 30.7713C4.01436 30.6697 4.09345 30.5172 4.09345 30.3139V29.8744C4.09345 29.6891 4.01729 29.5635 3.86496 29.4978C3.71263 29.432 3.46363 29.3991 3.11796 29.3991H2.36217V30.9148H3.10038Z" fill="#0F172A"/>
<path d="M6.43256 26.0897H10.7827V27.0852H7.80353V28.4215H10.4927V29.417H7.80353V30.9148H10.8706V31.9103H6.43256V26.0897Z" fill="#0F172A"/>
<path d="M13.5277 32C12.7427 32 12.0484 31.9342 11.4449 31.8027V30.7444C11.8551 30.8401 12.1919 30.9088 12.4556 30.9507C12.7192 30.9865 13.0063 31.0045 13.3168 31.0045C13.7621 31.0045 14.0697 30.9596 14.2396 30.87C14.4095 30.7743 14.4945 30.6248 14.4945 30.4215V29.8565C14.4945 29.6712 14.4036 29.5516 14.222 29.4978C14.0463 29.4439 13.765 29.417 13.3783 29.417H12.2447V28.4215H13.3783C13.6361 28.4215 13.8295 28.4036 13.9584 28.3677C14.0873 28.3318 14.1751 28.281 14.222 28.2152C14.2689 28.1435 14.2923 28.0419 14.2923 27.9103V27.4529C14.2923 27.2676 14.222 27.145 14.0814 27.0852C13.9408 27.0254 13.6859 26.9955 13.3168 26.9955C12.8305 26.9955 12.2447 27.0822 11.5592 27.2556V26.2063C12.274 26.0688 12.9448 26 13.5717 26C14.3099 26 14.8431 26.0867 15.1711 26.2601C15.4992 26.4275 15.6633 26.7205 15.6633 27.139V28.0717C15.6633 28.2451 15.6047 28.3976 15.4875 28.5291C15.3703 28.6547 15.2297 28.7384 15.0657 28.7803V28.8072C15.5988 28.9626 15.8654 29.2526 15.8654 29.6771V30.6188C15.8654 31.0792 15.6662 31.426 15.2678 31.6592C14.8753 31.8864 14.2953 32 13.5277 32Z" fill="#0F172A"/>
<path d="M16.8085 26.0897H18.7595L20.1656 30.2511L21.5541 26.0897H23.3909V31.9103H22.1517V27.6054H22.1254L20.6841 31.9103H19.5856L18.1004 27.6054H18.0652V31.9103H16.8085V26.0897Z" fill="#0F172A"/>
<path d="M26.1299 26.0897H27.7997L29.8561 31.9103H28.4676L27.9579 30.3767H25.8751L25.3741 31.9103H24.0207L26.1299 26.0897ZM27.6591 29.4439L26.9384 27.2556H26.9033L26.1826 29.4439H27.6591Z" fill="#0F172A"/>
<path d="M33.0108 32C32.753 32 32.5216 31.988 32.3166 31.9641C32.1174 31.9402 31.8976 31.8954 31.6574 31.8296C31.3879 31.7578 31.1653 31.6652 30.9895 31.5516C30.8138 31.432 30.6673 31.2676 30.5501 31.0583C30.4271 30.849 30.3656 30.6009 30.3656 30.3139V27.7578C30.3656 26.5859 31.2473 26 33.0108 26C33.462 26 34.0654 26.0658 34.8212 26.1973V27.2466C34.1416 27.0792 33.544 26.9955 33.0284 26.9955C32.8116 26.9955 32.6417 27.0015 32.5187 27.0135C32.4015 27.0254 32.2785 27.0553 32.1496 27.1031C31.8742 27.1988 31.7365 27.4111 31.7365 27.7399V30.2152C31.7365 30.7414 32.2082 31.0045 33.1514 31.0045C33.5557 31.0045 34.124 30.9178 34.8563 30.7444V31.8027C34.2295 31.9342 33.6143 32 33.0108 32Z" fill="#0F172A"/>
<path d="M36.0312 31.9821C35.9374 31.9821 35.8378 31.9701 35.7324 31.9462C35.6269 31.9283 35.5507 31.9163 35.5039 31.9103V30.8161C35.6328 30.8341 35.7411 30.843 35.829 30.843C36.122 30.843 36.3475 30.7593 36.5057 30.5919C36.6639 30.4185 36.7782 30.0777 36.8485 29.5695C36.9246 29.0613 36.9627 28.29 36.9627 27.2556V26.0897H41.1107V31.9103H39.7398V27.0762H38.2018V27.8834C38.2018 28.9895 38.1022 29.8445 37.903 30.4484C37.7097 31.0523 37.4548 31.4589 37.1385 31.6682C36.828 31.8774 36.4589 31.9821 36.0312 31.9821Z" fill="#0F172A"/>
<path d="M43.3953 29.6502C43.0262 29.6024 42.7508 29.4828 42.5692 29.2915C42.3876 29.1001 42.2967 28.8281 42.2967 28.4753V27.3184C42.2967 26.8759 42.4667 26.562 42.8065 26.3767C43.1463 26.1854 43.697 26.0897 44.4586 26.0897H46.9809V31.9103H45.6099V29.7578H44.8014L43.4656 31.9103H41.9013L43.3953 29.6502ZM45.6099 28.8341V27.0852H44.4762C44.1716 27.0852 43.9548 27.1271 43.8259 27.2108C43.7029 27.2885 43.6413 27.435 43.6413 27.6502V28.1973C43.6413 28.4484 43.6999 28.6188 43.8171 28.7085C43.9343 28.7922 44.154 28.8341 44.4762 28.8341H45.6099Z" fill="#0F172A"/>
<path d="M48.2109 26.0897H49.5819V28.4215H52.0075V26.0897H53.3784V31.9103H52.0075V29.417H49.5819V31.9103H48.2109V26.0897Z" fill="#0F172A"/>
<path d="M54.6047 26.0897H55.9757V28.2242H56.6963C57.2178 28.2242 57.6396 28.2511 57.9618 28.3049C58.2841 28.3587 58.5389 28.4753 58.7264 28.6547C58.9139 28.8281 59.0076 29.0882 59.0076 29.435V30.5291C59.0076 31.4499 58.2401 31.9103 56.7051 31.9103H54.6047V26.0897ZM59.8777 26.0897H61.2486V31.9103H59.8777V26.0897ZM56.6436 30.9148C56.9893 30.9148 57.2412 30.867 57.3994 30.7713C57.5576 30.6697 57.6367 30.5172 57.6367 30.3139V29.6951C57.6367 29.5097 57.5605 29.3842 57.4082 29.3184C57.2558 29.2526 57.0068 29.2197 56.6612 29.2197H55.9669V30.9148H56.6436Z" fill="#0F172A"/>
<path d="M62.4832 26.0897H66.8334V27.0852H63.8542V28.4215H66.5434V29.417H63.8542V30.9148H66.9213V31.9103H62.4832V26.0897Z" fill="#0F172A"/>
<path d="M69.8725 26.0897H71.2435V28.3857C71.5013 28.3857 71.7093 28.3378 71.8675 28.2422C72.0257 28.1405 72.1985 27.9492 72.386 27.6682L73.4581 26.0897H74.9961L73.7657 27.8386C73.5782 28.1076 73.4054 28.3139 73.2472 28.4574C73.0949 28.5949 72.9045 28.7085 72.676 28.7982V28.8161C72.9689 28.8879 73.2121 29.0164 73.4054 29.2018C73.6046 29.3871 73.7979 29.6562 73.9854 30.009L74.9961 31.9103H73.4581L72.5266 30.1973C72.4035 29.9701 72.2834 29.7997 72.1663 29.6861C72.0549 29.5665 71.929 29.4858 71.7884 29.4439C71.6478 29.4021 71.4661 29.3812 71.2435 29.3812V31.9103H69.8725V26.0897Z" fill="#0F172A"/>
<path d="M78.2062 32C77.8898 32 77.5969 31.9791 77.3274 31.9372C77.0637 31.8954 76.7883 31.8236 76.5013 31.722C76.1907 31.6143 75.9476 31.441 75.7718 31.2018C75.5961 30.9567 75.5082 30.6607 75.5082 30.3139V27.7668C75.5082 27.4798 75.5697 27.2227 75.6927 26.9955C75.8216 26.7683 75.9857 26.5889 76.1849 26.4574C76.3606 26.3438 76.5774 26.2481 76.8352 26.1704C77.093 26.0927 77.3332 26.0448 77.5558 26.0269C77.7609 26.009 77.9777 26 78.2062 26C78.4757 26 78.71 26.012 78.9092 26.0359C79.1084 26.0538 79.3311 26.0957 79.5771 26.1614C79.8584 26.2451 80.0898 26.3468 80.2714 26.4664C80.453 26.5859 80.6054 26.7534 80.7284 26.9686C80.8573 27.1898 80.9217 27.4559 80.9217 27.7668V30.3139C80.9217 30.6368 80.8368 30.9148 80.6669 31.148C80.5028 31.3812 80.2743 31.5575 79.9814 31.6771C79.4541 31.8924 78.8624 32 78.2062 32ZM78.2238 31.0045C78.4171 31.0045 78.5782 30.9985 78.7071 30.9865C78.8419 30.9686 78.9795 30.9387 79.1201 30.8969C79.2608 30.855 79.3662 30.7862 79.4365 30.6906C79.5127 30.5889 79.5508 30.4634 79.5508 30.3139V27.7578C79.5508 27.4828 79.4424 27.2885 79.2256 27.1749C79.0088 27.0553 78.672 26.9955 78.215 26.9955C77.758 26.9955 77.4211 27.0523 77.2043 27.1659C76.9875 27.2795 76.8792 27.4768 76.8792 27.7578V30.3139C76.8792 30.4634 76.9172 30.5889 76.9934 30.6906C77.0696 30.7862 77.1809 30.855 77.3274 30.8969C77.468 30.9387 77.6027 30.9686 77.7316 30.9865C77.8664 30.9985 78.0304 31.0045 78.2238 31.0045Z" fill="#0F172A"/>
<path d="M82.025 26.0897H83.976L85.3821 30.2511L86.7706 26.0897H88.6074V31.9103H87.3682V27.6054H87.3419L85.9006 31.9103H84.8021L83.3169 27.6054H83.2817V31.9103H82.025V26.0897Z" fill="#0F172A"/>
<path d="M89.8348 26.0897H94.8617V31.9103H93.4908V27.0762H91.2058V31.9103H89.8348V26.0897Z" fill="#0F172A"/>
<path d="M96.0913 26.0897H98.3762C98.9328 26.0897 99.3722 26.1286 99.6945 26.2063C100.023 26.284 100.26 26.4215 100.406 26.6188C100.559 26.8102 100.635 27.0792 100.635 27.426V28.5291C100.635 28.9118 100.553 29.2108 100.389 29.426C100.231 29.6413 99.9757 29.7937 99.6242 29.8834C99.2785 29.9731 98.8098 30.0179 98.2181 30.0179H97.4623V31.9103H96.0913V26.0897ZM98.3323 29.0583C98.6897 29.0583 98.9416 29.0164 99.0881 28.9327C99.2346 28.843 99.3078 28.6936 99.3078 28.4843V27.5516C99.3078 27.3602 99.2375 27.2347 99.0969 27.1749C98.9621 27.1151 98.7014 27.0852 98.3147 27.0852H97.4623V29.0583H98.3323Z" fill="#0F172A"/>
<path d="M101.601 26.0897H105.951V27.0852H102.972V28.4215H105.661V29.417H102.972V30.9148H106.039V31.9103H101.601V26.0897Z" fill="#0F172A"/>
<path d="M109.487 32C109.229 32 108.998 31.988 108.793 31.9641C108.594 31.9402 108.374 31.8954 108.134 31.8296C107.864 31.7578 107.642 31.6652 107.466 31.5516C107.29 31.432 107.144 31.2676 107.027 31.0583C106.904 30.849 106.842 30.6009 106.842 30.3139V27.7578C106.842 26.5859 107.724 26 109.487 26C109.938 26 110.542 26.0658 111.298 26.1973V27.2466C110.618 27.0792 110.02 26.9955 109.505 26.9955C109.288 26.9955 109.118 27.0015 108.995 27.0135C108.878 27.0254 108.755 27.0553 108.626 27.1031C108.351 27.1988 108.213 27.4111 108.213 27.7399V30.2152C108.213 30.7414 108.685 31.0045 109.628 31.0045C110.032 31.0045 110.6 30.9178 111.333 30.7444V31.8027C110.706 31.9342 110.091 32 109.487 32Z" fill="#0F172A"/>
<path d="M114.731 32C114.473 32 114.242 31.988 114.037 31.9641C113.838 31.9402 113.618 31.8954 113.378 31.8296C113.108 31.7578 112.885 31.6652 112.71 31.5516C112.534 31.432 112.387 31.2676 112.27 31.0583C112.147 30.849 112.086 30.6009 112.086 30.3139V27.7578C112.086 26.5859 112.967 26 114.731 26C115.182 26 115.786 26.0658 116.541 26.1973V27.2466C115.862 27.0792 115.264 26.9955 114.749 26.9955C114.532 26.9955 114.362 27.0015 114.239 27.0135C114.122 27.0254 113.999 27.0553 113.87 27.1031C113.594 27.1988 113.457 27.4111 113.457 27.7399V30.2152C113.457 30.7414 113.928 31.0045 114.872 31.0045C115.276 31.0045 115.844 30.9178 116.577 30.7444V31.8027C115.95 31.9342 115.334 32 114.731 32Z" fill="#0F172A"/>
<path d="M120.027 32C119.711 32 119.418 31.9791 119.149 31.9372C118.885 31.8954 118.61 31.8236 118.323 31.722C118.012 31.6143 117.769 31.441 117.593 31.2018C117.417 30.9567 117.329 30.6607 117.329 30.3139V27.7668C117.329 27.4798 117.391 27.2227 117.514 26.9955C117.643 26.7683 117.807 26.5889 118.006 26.4574C118.182 26.3438 118.399 26.2481 118.657 26.1704C118.914 26.0927 119.155 26.0448 119.377 26.0269C119.582 26.009 119.799 26 120.027 26C120.297 26 120.531 26.012 120.731 26.0359C120.93 26.0538 121.152 26.0957 121.398 26.1614C121.68 26.2451 121.911 26.3468 122.093 26.4664C122.274 26.5859 122.427 26.7534 122.55 26.9686C122.679 27.1898 122.743 27.4559 122.743 27.7668V30.3139C122.743 30.6368 122.658 30.9148 122.488 31.148C122.324 31.3812 122.096 31.5575 121.803 31.6771C121.275 31.8924 120.684 32 120.027 32ZM120.045 31.0045C120.238 31.0045 120.4 30.9985 120.528 30.9865C120.663 30.9686 120.801 30.9387 120.941 30.8969C121.082 30.855 121.188 30.7862 121.258 30.6906C121.334 30.5889 121.372 30.4634 121.372 30.3139V27.7578C121.372 27.4828 121.264 27.2885 121.047 27.1749C120.83 27.0553 120.493 26.9955 120.036 26.9955C119.579 26.9955 119.242 27.0523 119.026 27.1659C118.809 27.2795 118.7 27.4768 118.7 27.7578V30.3139C118.7 30.4634 118.739 30.5889 118.815 30.6906C118.891 30.7862 119.002 30.855 119.149 30.8969C119.289 30.9387 119.424 30.9686 119.553 30.9865C119.688 30.9985 119.852 31.0045 120.045 31.0045Z" fill="#0F172A"/>
<path d="M123.846 26.0897H126.131C126.688 26.0897 127.127 26.1286 127.449 26.2063C127.778 26.284 128.015 26.4215 128.161 26.6188C128.314 26.8102 128.39 27.0792 128.39 27.426V28.5291C128.39 28.9118 128.308 29.2108 128.144 29.426C127.986 29.6413 127.731 29.7937 127.379 29.8834C127.033 29.9731 126.565 30.0179 125.973 30.0179H125.217V31.9103H123.846V26.0897ZM126.087 29.0583C126.445 29.0583 126.697 29.0164 126.843 28.9327C126.99 28.843 127.063 28.6936 127.063 28.4843V27.5516C127.063 27.3602 126.992 27.2347 126.852 27.1749C126.717 27.1151 126.456 27.0852 126.07 27.0852H125.217V29.0583H126.087Z" fill="#0F172A"/>
<path d="M129.356 26.0897H130.727V28.2242H131.448C131.969 28.2242 132.391 28.2511 132.713 28.3049C133.035 28.3587 133.29 28.4753 133.478 28.6547C133.665 28.8281 133.759 29.0882 133.759 29.435V30.5291C133.759 31.4499 132.992 31.9103 131.456 31.9103H129.356V26.0897ZM134.629 26.0897H136V31.9103H134.629V26.0897ZM131.395 30.9148C131.741 30.9148 131.993 30.867 132.151 30.7713C132.309 30.6697 132.388 30.5172 132.388 30.3139V29.6951C132.388 29.5097 132.312 29.3842 132.16 29.3184C132.007 29.2526 131.758 29.2197 131.413 29.2197H130.718V30.9148H131.395Z" fill="#0F172A"/>
<path d="M19.6245 20H26.8163L17.3825 0H9.40461L0 20H7.19176L8.47289 16.9143H18.3142L19.6245 20ZM10.3946 12.2857L13.3936 5.05714L16.4217 12.2857H10.3946Z" fill="#EF4444"/>
<path d="M28.2691 0V20H35.1988V0H28.2691Z" fill="#EF4444"/>
<path d="M54.5581 20H61.9828L57.1495 12.6286C59.7408 11.6 61.3131 9.65714 61.3131 6.62857C61.3131 2.54286 58.2268 0 52.6073 0H38.1073V20H45.0079V13.5143H50.4236L54.5581 20ZM45.0079 4.62857H51.6173C53.4517 4.62857 54.296 5.31429 54.296 6.62857C54.296 7.91429 53.6555 8.94286 51.6173 8.94286H45.0079V4.62857Z" fill="#EF4444"/>
<path d="M78.1972 0H63.7264V20H70.627V13.7714H77.382C83.0015 13.7714 86.641 11.8 86.641 6.77143C86.641 2.68572 83.8167 0 78.1972 0ZM76.5667 9.2H70.627V4.62857H76.5667C78.6049 4.62857 79.6239 5.2 79.6239 6.77143C79.6239 8.31429 78.7213 9.2 76.5667 9.2Z" fill="#EF4444"/>
<path d="M109.357 15.4H95.8764V12.0571H108.251V7.42857H95.8764V4.62857H109.066V0H88.9758V20H109.357V15.4Z" fill="#EF4444"/>
<path d="M127.935 20H136L126.712 7.71429L135.592 0H127.061L118.88 7.31429V0H111.979V20H118.88V14.4857L122.024 11.7429L127.935 20Z" fill="#EF4444"/>
</svg>
