<svg width="20" height="20" viewBox="0 0 20 20" fill="none" xmlns="http://www.w3.org/2000/svg">
<g clip-path="url(#clip0_114_380)">
<path d="M0.427148 9.88041C0.42668 11.5608 0.86918 13.2016 1.71059 14.6478L0.34668 19.589L5.44293 18.2631C6.85248 19.0245 8.43179 19.4235 10.0367 19.4236H10.0409C15.3389 19.4236 19.6517 15.1458 19.6539 9.88793C19.655 7.3401 18.6559 4.94428 16.8407 3.1418C15.0259 1.33948 12.6122 0.346378 10.0405 0.345215C4.74184 0.345215 0.429414 4.62273 0.427227 9.88041" fill="#1FAF38"/>
<path d="M7.55254 5.74801C7.36613 5.33692 7.16996 5.32863 6.9927 5.32142C6.84754 5.31522 6.6816 5.31568 6.51582 5.31568C6.34988 5.31568 6.08027 5.37762 5.85238 5.62452C5.62426 5.87165 4.98145 6.46886 4.98145 7.68351C4.98145 8.89824 5.87309 10.0721 5.99738 10.237C6.12184 10.4016 7.71871 12.974 10.2478 13.9636C12.3496 14.786 12.7774 14.6224 13.2336 14.5812C13.6898 14.5401 14.7057 13.9841 14.913 13.4076C15.1204 12.8312 15.1204 12.3371 15.0582 12.2338C14.9961 12.131 14.8301 12.0692 14.5813 11.9458C14.3324 11.8223 13.1091 11.225 12.8811 11.1426C12.6529 11.0603 12.4871 11.0192 12.3211 11.2664C12.1552 11.5132 11.6787 12.0692 11.5335 12.2338C11.3884 12.3989 11.2432 12.4194 10.9944 12.2959C10.7454 12.172 9.9441 11.9117 8.9934 11.0706C8.25371 10.4162 7.75434 9.60808 7.60918 9.36088C7.46402 9.11405 7.59363 8.98026 7.7184 8.85723C7.8302 8.74661 7.9673 8.56894 8.09184 8.42483C8.2159 8.28064 8.2573 8.17777 8.34027 8.01312C8.42332 7.84832 8.38176 7.70413 8.31965 7.58064C8.2573 7.45715 7.77379 6.23622 7.55254 5.74809" fill="white"/>
</g>
<defs>
<clipPath id="clip0_114_380">
<rect width="20" height="20" fill="white"/>
</clipPath>
</defs>
</svg>
